<?xml version="1.0" encoding="UTF-8" standalone="yes"?>
<!-- Created with sK1/UniConvertor (http://sk1project.org/) -->
<svg xmlns="http://www.w3.org/2000/svg" xmlns:xlink="http://www.w3.org/1999/xlink"
  width="819.2pt" height="819.2pt" viewBox="0 0 819.2 819.2"
  fill-rule="evenodd">
<g>
<path style="stroke:none; fill:#138ddf" d="M 143.943 25.6L 675.257 25.6C 740.614 25.6 793.6 78.5843 793.6 143.943L 793.6 675.257C 793.6 740.614 740.614 793.6 675.257 793.6L 143.943 793.6C 78.5843 793.6 25.6 740.614 25.6 675.257L 25.6 143.943C 25.6 78.5843 78.5843 25.6 143.943 25.6"/>
<path style="stroke:none; fill:#ffa92c" d="M 524.208 406.571C 520.43 333.19 465.97 289.068 400.198 289.068L 397.718 289.068C 321.815 289.068 279.718 348.759 279.718 416.554C 279.718 492.483 330.649 540.434 397.422 540.434C 471.877 540.434 520.835 485.897 524.378 421.391L 524.208 406.571zM 398.089 223.422C 448.813 223.422 496.491 245.836 531.505 280.93L 531.505 281.07C 531.505 264.212 542.836 251.513 558.596 251.513L 562.571 251.488C 587.201 251.488 592.255 274.8 592.255 282.178L 592.378 544.198C 590.646 561.34 610.078 570.192 620.861 559.205C 662.937 515.962 713.259 336.931 594.708 233.199C 484.209 136.479 335.95 152.422 257.105 206.765C 173.285 264.578 119.652 392.512 171.751 512.675C 228.542 643.765 391.061 682.843 487.653 643.869C 536.564 624.12 559.154 690.246 508.356 711.845C 431.598 744.552 217.967 741.263 118.177 568.385C 50.7541 451.653 54.3447 246.263 233.168 139.846C 369.966 58.4502 550.324 80.9946 659.077 194.581C 772.762 313.312 766.131 535.646 655.242 622.133C 605.004 661.387 530.388 623.166 530.865 565.933L 530.347 547.22C 495.359 581.935 448.813 602.188 398.089 602.188C 297.879 602.188 209.703 514.003 209.703 413.828C 209.703 312.613 297.879 223.422 398.089 223.422L 398.089 223.422"/>
</g>
</svg>