<?xml version="1.0" encoding="UTF-8" standalone="yes"?>
<!-- Created with sK1/UniConvertor (http://sk1project.org/) -->
<svg xmlns="http://www.w3.org/2000/svg" xmlns:xlink="http://www.w3.org/1999/xlink"
  width="819.2pt" height="819.2pt" viewBox="0 0 819.2 819.2"
  fill-rule="evenodd">
<g>
<path style="stroke:none; fill:#4a75a1" d="M 143.943 25.6L 675.257 25.6C 740.614 25.6 793.6 78.5843 793.6 143.943L 793.6 675.257C 793.6 740.614 740.614 793.6 675.257 793.6L 143.943 793.6C 78.5843 793.6 25.6 740.614 25.6 675.257L 25.6 143.943C 25.6 78.5843 78.5843 25.6 143.943 25.6"/>
<path style="stroke:none; fill:#ffffff" d="M 402.357 614.57L 442.711 614.57C 442.711 614.57 454.898 613.226 461.129 606.522C 466.856 600.36 466.673 588.796 466.673 588.796C 466.673 588.796 465.884 534.648 491.011 526.674C 515.791 518.814 547.603 579.006 581.32 602.152C 606.818 619.662 626.194 615.83 626.194 615.83L 716.357 614.57C 716.357 614.57 763.521 611.66 741.156 574.577C 739.326 571.548 728.128 547.146 674.115 497.011C 617.575 444.536 625.155 453.026 693.256 362.258C 734.73 306.981 751.308 273.235 746.128 258.783C 741.192 245.013 710.685 248.651 710.685 248.651L 609.169 249.278C 609.169 249.278 601.637 248.253 596.06 251.591C 590.604 254.856 587.102 262.482 587.102 262.482C 587.102 262.482 571.028 305.255 549.607 341.636C 504.403 418.394 486.325 422.457 478.936 417.683C 461.745 406.573 466.041 373.061 466.041 349.246C 466.041 274.857 477.324 243.841 444.068 235.812C 433.035 233.15 424.906 231.388 396.684 231.1C 360.459 230.732 329.807 231.212 312.447 239.716C 300.898 245.372 291.987 257.972 297.417 258.698C 304.128 259.591 319.32 262.799 327.375 273.758C 337.781 287.916 337.417 319.698 337.417 319.698C 337.417 319.698 343.396 407.265 323.457 418.14C 309.775 425.6 291.003 410.37 250.701 340.731C 230.055 305.06 214.461 265.625 214.461 265.625C 214.461 265.625 211.459 258.258 206.095 254.314C 199.591 249.535 190.502 248.02 190.502 248.02L 94.0307 248.651C 94.0307 248.651 79.5521 249.055 74.2315 255.352C 69.498 260.958 73.8535 272.539 73.8535 272.539C 73.8535 272.539 149.375 449.234 234.895 538.278C 313.32 619.928 402.357 614.57 402.357 614.57"/>
</g>
</svg>