<?xml version="1.0" encoding="UTF-8" standalone="yes"?>
<!-- Created with sK1/UniConvertor (http://sk1project.org/) -->
<svg xmlns="http://www.w3.org/2000/svg" xmlns:xlink="http://www.w3.org/1999/xlink"
  width="819.2pt" height="819.2pt" viewBox="0 0 819.2 819.2"
  fill-rule="evenodd">
<g>
<path style="stroke:none; fill:#00006a" d="M 143.943 25.6L 675.257 25.6C 740.614 25.6 793.6 78.5843 793.6 143.943L 793.6 675.257C 793.6 740.614 740.614 793.6 675.257 793.6L 143.943 793.6C 78.5843 793.6 25.6 740.614 25.6 675.257L 25.6 143.943C 25.6 78.5843 78.5843 25.6 143.943 25.6"/>
<path style="stroke:none; fill:#f8c536" d="M 129.482 288L 203.894 288C 234.469 288 259.287 312.817 259.287 343.392L 259.287 650.506C 259.287 681.083 234.469 705.9 203.894 705.9L 129.482 705.9C 98.9071 705.9 74.0895 681.083 74.0895 650.506L 74.0895 343.392C 74.0895 312.817 98.9071 288 129.482 288z"/>
<path style="stroke:none; fill:#1381c5" d="M 452.198 149.3L 375.868 149.3C 342.962 149.3 316.252 176.01 316.252 208.916L 316.252 646.286C 316.252 679.19 342.962 705.9 375.868 705.9L 452.198 705.9C 485.104 705.9 511.813 679.19 511.813 646.286L 511.813 208.916C 511.813 176.01 485.104 149.3 452.198 149.3z"/>
<path style="stroke:none; fill:#ab1e1f" d="M 687.671 381.855L 617.978 381.855C 586.278 381.855 560.543 406.673 560.543 437.248L 560.543 650.506C 560.543 681.083 586.278 705.9 617.978 705.9L 687.671 705.9C 719.376 705.9 745.11 681.083 745.11 650.506L 745.11 437.248C 745.11 406.673 719.376 381.855 687.671 381.855z"/>
</g>
</svg>