<?xml version="1.0" standalone="no"?>
<!DOCTYPE svg PUBLIC "-//W3C//DTD SVG 20010904//EN"
 "http://www.w3.org/TR/2001/REC-SVG-20010904/DTD/svg10.dtd">
<svg version="1.0" xmlns="http://www.w3.org/2000/svg"
 width="151.000000pt" height="57.000000pt" viewBox="0 0 151.000000 57.000000"
 preserveAspectRatio="xMidYMid meet">
<metadata>
Created by potrace 1.15, written by Peter Selinger 2001-2017
</metadata>
<g transform="translate(0.000000,57.000000) scale(0.100000,-0.100000)"
fill="#000000" stroke="none">
<path d="M29 541 l-29 -29 0 -227 0 -227 29 -29 29 -29 695 0 695 0 31 31 31
31 0 225 0 225 -29 29 -29 29 -697 0 -697 0 -29 -29z m99 -249 c2 -197 2 -202
-18 -202 -19 0 -20 6 -20 206 0 190 1 205 18 202 15 -3 17 -22 20 -206z m922
187 c0 -6 -16 -25 -35 -43 -21 -20 -35 -43 -35 -57 0 -21 4 -24 35 -23 28 2
35 -2 35 -17 0 -15 -7 -19 -37 -19 l-38 0 0 -112 c0 -99 -2 -113 -17 -116 -16
-3 -18 7 -18 111 0 106 -1 115 -20 120 -25 6 -26 27 -1 34 11 3 23 20 30 43
15 52 101 119 101 79z m-662 -140 c13 -8 41 -52 64 -99 22 -47 47 -93 55 -102
32 -36 103 -13 103 33 0 15 -17 27 -65 49 -63 28 -65 30 -65 66 0 49 23 74 70
74 41 0 84 -33 57 -43 -8 -3 -19 -1 -25 5 -5 5 -22 8 -38 6 -25 -3 -29 -7 -29
-33 0 -26 5 -31 48 -46 66 -24 77 -35 77 -80 0 -53 -29 -79 -90 -79 -58 0 -67
9 -124 126 -31 64 -51 93 -70 102 -79 36 -155 -12 -156 -96 0 -35 6 -49 29
-73 39 -39 103 -41 143 -4 22 20 27 22 32 9 10 -25 8 -29 -23 -47 -34 -20
-116 -22 -148 -4 -62 35 -88 117 -58 181 35 74 139 101 213 55z m840 0 l22
-20 27 20 c36 29 94 28 130 -3 27 -23 28 -28 31 -135 3 -96 2 -111 -12 -111
-13 0 -16 15 -16 94 0 79 -3 97 -21 120 -26 33 -62 34 -94 1 -23 -22 -25 -32
-25 -120 0 -75 -3 -95 -14 -95 -11 0 -15 22 -18 101 -3 92 -5 103 -27 120 -33
27 -66 24 -90 -7 -18 -23 -21 -41 -21 -120 0 -77 -3 -94 -15 -94 -12 0 -15 18
-15 106 0 103 1 106 29 135 37 36 95 40 129 8z"/>
</g>
</svg>
