<?xml version="1.0" standalone="no"?>
<!DOCTYPE svg PUBLIC "-//W3C//DTD SVG 20010904//EN"
 "http://www.w3.org/TR/2001/REC-SVG-20010904/DTD/svg10.dtd">
<svg version="1.0" xmlns="http://www.w3.org/2000/svg"
 width="140.000000pt" height="140.000000pt" viewBox="0 0 140.000000 140.000000"
 preserveAspectRatio="xMidYMid meet">
<metadata>
Created by potrace 1.15, written by Peter Selinger 2001-2017
</metadata>
<g transform="translate(0.000000,140.000000) scale(0.100000,-0.100000)"
fill="#000000" stroke="none">
<path d="M115 1386 c-43 -19 -94 -74 -106 -116 -6 -23 -9 -230 -7 -591 l3
-555 24 -36 c13 -19 40 -46 59 -59 l36 -24 564 -3 c553 -2 566 -2 607 18 25
12 55 38 71 62 l29 41 0 577 0 576 -24 36 c-13 19 -40 46 -59 59 l-36 24 -565
2 c-452 2 -572 0 -596 -11z m832 -261 c58 -24 73 -43 73 -90 0 -28 -9 -55 -29
-87 -38 -60 -51 -67 -51 -28 0 36 -35 76 -74 86 -34 8 -201 -12 -256 -31 -23
-8 -64 -30 -90 -49 -41 -30 -51 -33 -66 -22 -13 10 -16 22 -11 55 7 57 26 82
85 114 112 61 332 88 419 52z m-342 -300 c72 -14 166 -32 210 -40 136 -26 202
-76 210 -158 2 -17 6 -49 10 -70 6 -29 2 -48 -19 -90 -55 -113 -225 -190 -422
-191 -103 0 -162 21 -208 76 -59 68 -61 179 -4 221 18 14 48 21 100 24 l73 5
-30 -20 c-16 -10 -38 -28 -48 -40 -21 -23 -38 -85 -28 -101 20 -32 195 -16
314 29 65 24 174 95 191 123 18 29 -12 42 -156 66 -73 13 -157 29 -186 36 -99
25 -182 90 -182 143 0 20 4 23 23 18 12 -3 81 -18 152 -31z"/>
</g>
</svg>
