<?xml version="1.0" standalone="no"?>
<!DOCTYPE svg PUBLIC "-//W3C//DTD SVG 20010904//EN"
 "http://www.w3.org/TR/2001/REC-SVG-20010904/DTD/svg10.dtd">
<svg version="1.0" xmlns="http://www.w3.org/2000/svg"
 width="225.000000pt" height="225.000000pt" viewBox="0 0 225.000000 225.000000"
 preserveAspectRatio="xMidYMid meet">
<metadata>
Created by potrace 1.15, written by Peter Selinger 2001-2017
</metadata>
<g transform="translate(0.000000,225.000000) scale(0.100000,-0.100000)"
fill="#000000" stroke="none">
<path d="M122 2239 c-34 -13 -74 -46 -94 -77 -17 -25 -18 -89 -18 -1037 0
-1105 -4 -1026 55 -1078 50 -45 68 -47 408 -47 301 0 325 1 340 18 14 15 17
41 17 140 l0 122 -101 0 c-187 0 -246 33 -324 180 -41 77 -60 102 -107 138
-32 25 -58 51 -58 57 0 20 49 24 99 9 47 -14 89 -51 164 -146 24 -30 57 -57
92 -74 48 -23 64 -26 118 -22 84 7 123 28 131 71 3 18 19 54 36 80 l29 46 -37
6 c-95 16 -198 47 -255 77 -170 90 -256 258 -257 499 0 118 22 198 79 284 37
56 39 64 31 100 -14 61 -12 153 6 217 16 56 18 58 51 58 49 0 147 -35 227 -82
l69 -41 94 17 c120 22 317 22 433 1 l87 -17 109 56 c78 40 125 57 166 62 66 8
66 7 89 -105 10 -49 10 -76 0 -136 l-12 -76 39 -62 c55 -87 73 -146 79 -258 9
-150 -31 -292 -115 -405 -60 -82 -201 -152 -366 -183 -33 -6 -61 -13 -63 -15
-2 -2 7 -21 21 -41 42 -61 50 -108 52 -305 3 -247 2 -236 20 -255 14 -14 53
-15 343 -13 l328 3 39 27 c80 56 74 -36 74 1097 l0 1011 -37 41 c-21 23 -52
48 -70 56 -26 11 -212 13 -1010 12 -586 0 -987 -4 -1001 -10z"/>
</g>
</svg>
